<svg width="72" height="88" viewBox="0 0 72 88" fill="none" xmlns="http://www.w3.org/2000/svg">
<g filter="url(#filter0_d_657_89)">
<path d="M60 0.04L12 0C7.6 0 4 3.56 4 8V72C4 76.4 7.6 80 12 80H60C64.4 80 68 76.4 68 72V8C68 3.56 64.4 0.04 60 0.04ZM60 72H12V35.92H60V72ZM60 28H12V8H60V28ZM20 12H28V24H20V12ZM20 40H28V60H20V40Z" fill="#47474D"/>
</g>
<defs>
<filter id="filter0_d_657_89" x="0" y="0" width="72" height="88" filterUnits="userSpaceOnUse" color-interpolation-filters="sRGB">
<feFlood flood-opacity="0" result="BackgroundImageFix"/>
<feColorMatrix in="SourceAlpha" type="matrix" values="0 0 0 0 0 0 0 0 0 0 0 0 0 0 0 0 0 0 127 0" result="hardAlpha"/>
<feOffset dy="4"/>
<feGaussianBlur stdDeviation="2"/>
<feComposite in2="hardAlpha" operator="out"/>
<feColorMatrix type="matrix" values="0 0 0 0 0 0 0 0 0 0 0 0 0 0 0 0 0 0 0.25 0"/>
<feBlend mode="normal" in2="BackgroundImageFix" result="effect1_dropShadow_657_89"/>
<feBlend mode="normal" in="SourceGraphic" in2="effect1_dropShadow_657_89" result="shape"/>
</filter>
</defs>
</svg>
