<svg width="49" height="41" viewBox="0 0 49 41" fill="none" xmlns="http://www.w3.org/2000/svg">
<path d="M29.9817 0.517578C31.2031 0.517578 32.2786 0.782109 33.2082 1.31116C34.1562 1.82197 34.8853 2.5517 35.3957 3.50035C35.9244 4.43075 36.1887 5.51623 36.1887 6.75677V14.0085C36.1887 15.4679 35.815 16.7176 35.0676 17.7574C34.3384 18.779 33.3267 19.4723 32.0325 19.8372C31.9595 19.8555 31.9231 19.901 31.9231 19.974V22.2453C31.9231 22.3365 31.8867 22.4095 31.8137 22.4642C31.759 22.5372 31.6861 22.5737 31.595 22.5737H28.3958C28.3046 22.5737 28.2226 22.5372 28.1497 22.4642C28.095 22.4095 28.0676 22.3365 28.0676 22.2453V19.974C28.0676 19.901 28.0312 19.8555 27.9583 19.8372C26.6822 19.4723 25.6705 18.779 24.9231 17.7574C24.1939 16.7176 23.8293 15.4679 23.8293 14.0085V6.75677C23.8293 5.51623 24.0845 4.43075 24.595 3.50035C25.1054 2.5517 25.8254 1.82197 26.7551 1.31116C27.6848 0.782109 28.7603 0.517578 29.9817 0.517578ZM32.3333 6.45575C32.3333 5.67129 32.1145 5.0419 31.677 4.56758C31.2578 4.07501 30.6926 3.82873 29.9817 3.82873C29.3072 3.82873 28.7512 4.07501 28.3137 4.56758C27.8945 5.0419 27.6848 5.67129 27.6848 6.45575V14.1726C27.6848 14.9571 27.8945 15.5956 28.3137 16.0882C28.7512 16.5625 29.3072 16.7997 29.9817 16.7997C30.6926 16.7997 31.2578 16.5625 31.677 16.0882C32.1145 15.5956 32.3333 14.9571 32.3333 14.1726V6.45575Z" fill="#1FAD66"/>
<path d="M1.08344 8.45414C0.888532 8.64475 0.733983 8.87117 0.628546 9.1205C0.522999 9.36974 0.46875 9.63704 0.46875 9.90686C0.46875 10.1768 0.522999 10.4441 0.628546 10.6933C0.733983 10.9426 0.888532 11.169 1.08344 11.3596L30.373 40.0864C30.5673 40.2774 30.7982 40.429 31.0524 40.5325C31.3065 40.636 31.579 40.6891 31.8542 40.6891C32.1294 40.6891 32.4019 40.636 32.6561 40.5325C32.9102 40.429 33.141 40.2774 33.3354 40.0864L47.9802 25.723C48.373 25.3377 48.5938 24.8151 48.5938 24.2702C48.5938 23.7253 48.373 23.2028 47.9802 22.8175C47.5874 22.4322 47.0545 22.2158 46.499 22.2158C45.9434 22.2158 45.4106 22.4322 45.0177 22.8175L31.8542 35.7322L4.04586 8.45414C3.8515 8.26306 3.62061 8.11145 3.36642 8.00801C3.11223 7.90456 2.83978 7.85132 2.56459 7.85132C2.2894 7.85132 2.01695 7.90456 1.76277 8.00801C1.50858 8.11145 1.27769 8.26306 1.08344 8.45414Z" fill="#182233"/>
</svg>
