<svg width="199" height="116" viewBox="0 0 199 116" fill="none" xmlns="http://www.w3.org/2000/svg">
<g clip-path="url(#clip0_10_35)" filter="url(#filter0_d_10_35)">
<g filter="url(#filter1_d_10_35)">
<path d="M4.13159 70.5946H8.41323V94.6216H16.4081V98.4054H4.13159V70.5946ZM20.1457 81.0379H24.3894V98.4054H20.1457V81.0379ZM22.2297 77.7838C21.4467 77.7838 20.7898 77.5189 20.2593 76.9892C19.7289 76.4595 19.4636 75.8037 19.4636 75.0216C19.4636 74.3153 19.7289 73.7099 20.2593 73.2054C20.7898 72.701 21.4467 72.4487 22.2297 72.4487C22.9875 72.4487 23.6316 72.701 24.1621 73.2054C24.6925 73.7099 24.9578 74.3153 24.9578 75.0216C24.9578 75.8037 24.6925 76.4595 24.1621 76.9892C23.6569 77.5189 23.0128 77.7838 22.2297 77.7838ZM31.3057 84.2919H28.5018V81.0379H31.3057V77.2919C31.3057 75.0216 31.8487 73.2685 32.935 72.0325C34.0464 70.7712 35.6631 70.1406 37.785 70.1406C38.6439 70.1406 39.6163 70.3802 40.7025 70.8595L39.9068 74.7189C39.73 74.5172 39.4522 74.328 39.0733 74.1514C38.7197 73.9496 38.328 73.8487 37.8986 73.8487C36.2061 73.8487 35.3474 74.946 35.3221 77.1406V81.0379H39.4143V84.2919H35.3221V98.4054H31.3057V84.2919ZM51.2477 98.7838C49.1764 98.7838 47.446 98.3801 46.0566 97.573C44.6674 96.7406 43.6444 95.6433 42.9875 94.2811C42.3308 92.8937 42.0023 91.3802 42.0023 89.7406C42.0023 87.8991 42.3813 86.2848 43.1391 84.8973C43.9222 83.5099 44.9957 82.4504 46.3598 81.7189C47.7238 80.9622 49.2648 80.5838 50.9824 80.5838C53.6601 80.5838 55.643 81.328 56.9312 82.8162C58.2448 84.2794 58.9016 86.3477 58.9016 89.0216C58.9016 89.7027 58.8637 90.4091 58.7879 91.1406H46.284C46.562 92.6794 47.105 93.7892 47.9133 94.4703C48.7469 95.1514 49.8963 95.4919 51.3613 95.4919C52.5738 95.4919 53.5717 95.391 54.3547 95.1892C55.1378 94.9875 55.8577 94.7099 56.5145 94.3568L57.7648 97.2703C57.1334 97.6739 56.2745 98.027 55.1883 98.3297C54.1022 98.6324 52.7886 98.7838 51.2477 98.7838ZM54.923 88.3027C54.9484 86.7388 54.6073 85.6415 53.9 85.0108C53.1928 84.355 52.1823 84.027 50.8688 84.027C48.2164 84.027 46.6882 85.4523 46.284 88.3027H54.923Z" fill="white"/>
</g>
<g filter="url(#filter2_d_10_35)">
<path d="M98.7755 84.4433C98.7755 87.1676 98.2072 89.5766 97.0705 91.6703C95.9337 93.7639 94.393 95.4162 92.4478 96.627L95.8958 101.962H91.69L89.1892 98.1406C87.7494 98.5693 86.2844 98.7838 84.7939 98.7838C82.268 98.7838 79.9313 98.2037 77.7841 97.0433C75.6623 95.8577 73.9699 94.1802 72.7068 92.0108C71.4438 89.8415 70.8123 87.3189 70.8123 84.4433C70.8123 81.5423 71.4438 79.0199 72.7068 76.8757C73.9699 74.7064 75.6623 73.0415 77.7841 71.8811C79.9313 70.7207 82.268 70.1406 84.7939 70.1406C87.32 70.1406 89.6439 70.7207 91.7658 71.8811C93.913 73.0415 95.618 74.7064 96.881 76.8757C98.1441 79.0199 98.7755 81.5423 98.7755 84.4433ZM75.3212 84.4811C75.3212 86.6757 75.7508 88.5676 76.6095 90.1568C77.4684 91.7207 78.6177 92.9189 80.0576 93.7514C81.5227 94.5585 83.1016 94.9622 84.7939 94.9622C85.577 94.9622 86.3095 94.8865 86.9916 94.7352L84.4529 90.6108H88.6966L90.3259 93.2595C91.5637 92.3766 92.5236 91.191 93.2056 89.7027C93.913 88.2145 94.2666 86.4739 94.2666 84.4811C94.2666 82.2612 93.8372 80.3693 92.9783 78.8054C92.1447 77.2162 91.008 76.018 89.5681 75.2108C88.1536 74.4037 86.5622 74 84.7939 74C83.0258 74 81.4216 74.4037 79.9818 75.2108C78.5419 76.018 77.4052 77.2162 76.5716 78.8054C75.738 80.3693 75.3212 82.2612 75.3212 84.4811ZM108.894 98.7838C106.494 98.7838 104.839 98.0774 103.93 96.6649C103.046 95.2523 102.604 93.2848 102.604 90.7622V81.0379H106.696V89.7406C106.696 91.1784 106.772 92.301 106.923 93.1081C107.1 93.8902 107.428 94.4703 107.908 94.8487C108.414 95.2271 109.159 95.4162 110.144 95.4162C110.851 95.4162 111.533 95.2145 112.19 94.8108C112.847 94.4072 113.377 93.8649 113.781 93.1838C114.211 92.4774 114.426 91.7081 114.426 90.8757V81.0379H118.48V98.4054H115.145L114.691 95.8703C114.059 96.8541 113.264 97.5856 112.304 98.0649C111.369 98.5442 110.232 98.7838 108.894 98.7838ZM131.236 98.7838C129.67 98.7838 128.218 98.418 126.879 97.6865C125.565 96.9298 124.504 95.8703 123.696 94.5081C122.913 93.1207 122.521 91.5064 122.521 89.6649C122.521 87.8487 122.862 86.2595 123.544 84.8973C124.252 83.5352 125.25 82.4757 126.538 81.7189C127.826 80.9622 129.342 80.5838 131.085 80.5838C132.095 80.5838 133.042 80.7604 133.927 81.1135C134.811 81.4666 135.556 81.9081 136.162 82.4379C136.768 82.9423 137.173 83.4469 137.375 83.9514L137.45 81.0379H141.353V98.4054H137.488L137.412 95.3406C136.983 96.2487 136.2 97.0558 135.063 97.7622C133.927 98.4433 132.651 98.7838 131.236 98.7838ZM131.918 95.3784C133.358 95.3784 134.571 94.8865 135.556 93.9027C136.541 92.8937 137.034 91.5821 137.034 89.9676V89.7027C137.034 88.618 136.806 87.6469 136.352 86.7892C135.897 85.9315 135.278 85.2631 134.495 84.7838C133.712 84.3045 132.853 84.0649 131.918 84.0649C130.302 84.0649 129.051 84.5946 128.167 85.6541C127.283 86.6883 126.841 88.0379 126.841 89.7027C126.841 91.3929 127.27 92.7676 128.129 93.827C129.013 94.8612 130.276 95.3784 131.918 95.3784ZM146.818 70.5946H150.873V98.4054H146.818V70.5946ZM156.539 81.0379H160.783V98.4054H156.539V81.0379ZM158.623 77.7838C157.841 77.7838 157.184 77.5189 156.653 76.9892C156.123 76.4595 155.857 75.8037 155.857 75.0216C155.857 74.3153 156.123 73.7099 156.653 73.2054C157.184 72.701 157.841 72.4487 158.623 72.4487C159.381 72.4487 160.025 72.701 160.556 73.2054C161.086 73.7099 161.352 74.3153 161.352 75.0216C161.352 75.8037 161.086 76.4595 160.556 76.9892C160.051 77.5189 159.407 77.7838 158.623 77.7838ZM167.587 84.3676H164.518V81.0379H167.587V73.9622L171.717 73.0541V81.0379H175.733V84.3676H171.717V98.4054H167.587V84.3676ZM183.681 98.9352L176.482 81.0379H181.105L184.818 92.0865L185.652 94.773L186.485 92.0865L190.388 81.0379H194.859L184.174 107.941H179.93L183.681 98.9352Z" fill="#1FAD66"/>
</g>
<g filter="url(#filter3_d_10_35)">
<path d="M97.9745 0.481079C99.667 0.481079 101.157 0.84685 102.446 1.57838C103.759 2.28469 104.77 3.29369 105.477 4.6054C106.209 5.89189 106.576 7.3928 106.576 9.10811V19.1351C106.576 21.1531 106.058 22.8811 105.022 24.3189C104.012 25.7315 102.61 26.6901 100.816 27.1946C100.715 27.2199 100.665 27.2828 100.665 27.3838V30.5243C100.665 30.6504 100.614 30.7513 100.513 30.827C100.437 30.928 100.336 30.9784 100.21 30.9784H95.7769C95.6506 30.9784 95.537 30.928 95.4359 30.827C95.3601 30.7513 95.3222 30.6504 95.3222 30.5243V27.3838C95.3222 27.2828 95.2717 27.2199 95.1706 27.1946C93.4024 26.6901 92.0004 25.7315 90.9648 24.3189C89.9543 22.8811 89.4492 21.1531 89.4492 19.1351V9.10811C89.4492 7.3928 89.8028 5.89189 90.5101 4.6054C91.2174 3.29369 92.2152 2.28469 93.5035 1.57838C94.7917 0.84685 96.282 0.481079 97.9745 0.481079ZM101.233 8.69189C101.233 7.6072 100.93 6.73693 100.324 6.08108C99.7428 5.4 98.9597 5.05946 97.9745 5.05946C97.0399 5.05946 96.2695 5.4 95.6632 6.08108C95.0823 6.73693 94.7917 7.6072 94.7917 8.69189V19.3622C94.7917 20.4469 95.0823 21.3297 95.6632 22.0108C96.2695 22.6666 97.0399 22.9946 97.9745 22.9946C98.9597 22.9946 99.7428 22.6666 100.324 22.0108C100.93 21.3297 101.233 20.4469 101.233 19.3622V8.69189Z" fill="#1FAD66"/>
</g>
<g filter="url(#filter4_d_10_35)">
<path d="M57.9299 11.4552C57.6598 11.7187 57.4457 12.0318 57.2996 12.3766C57.1533 12.7212 57.0781 13.0908 57.0781 13.4639C57.0781 13.8371 57.1533 14.2067 57.2996 14.5513C57.4457 14.896 57.6598 15.2091 57.9299 15.4726L98.5168 55.1936C98.7862 55.4577 99.1061 55.6673 99.4583 55.8105C99.8104 55.9535 100.188 56.027 100.569 56.027C100.951 56.027 101.328 55.9535 101.681 55.8105C102.033 55.6673 102.353 55.4577 102.622 55.1936L122.915 35.3331C123.46 34.8003 123.766 34.0778 123.766 33.3243C123.766 32.5709 123.46 31.8484 122.915 31.3156C122.371 30.7829 121.633 30.4836 120.863 30.4836C120.093 30.4836 119.355 30.7829 118.81 31.3156L100.569 49.173L62.035 11.4552C61.7657 11.191 61.4457 10.9813 61.0935 10.8383C60.7412 10.6953 60.3637 10.6216 59.9824 10.6216C59.601 10.6216 59.2235 10.6953 58.8713 10.8383C58.519 10.9813 58.1991 11.191 57.9299 11.4552Z" fill="white"/>
</g>
</g>
<defs>
<filter id="filter0_d_10_35" x="0" y="0" width="199" height="116" filterUnits="userSpaceOnUse" color-interpolation-filters="sRGB">
<feFlood flood-opacity="0" result="BackgroundImageFix"/>
<feColorMatrix in="SourceAlpha" type="matrix" values="0 0 0 0 0 0 0 0 0 0 0 0 0 0 0 0 0 0 127 0" result="hardAlpha"/>
<feOffset dy="4"/>
<feGaussianBlur stdDeviation="2"/>
<feComposite in2="hardAlpha" operator="out"/>
<feColorMatrix type="matrix" values="0 0 0 0 0 0 0 0 0 0 0 0 0 0 0 0 0 0 0.25 0"/>
<feBlend mode="normal" in2="BackgroundImageFix" result="effect1_dropShadow_10_35"/>
<feBlend mode="normal" in="SourceGraphic" in2="effect1_dropShadow_10_35" result="shape"/>
</filter>
<filter id="filter1_d_10_35" x="0.131592" y="70.1406" width="62.77" height="36.6432" filterUnits="userSpaceOnUse" color-interpolation-filters="sRGB">
<feFlood flood-opacity="0" result="BackgroundImageFix"/>
<feColorMatrix in="SourceAlpha" type="matrix" values="0 0 0 0 0 0 0 0 0 0 0 0 0 0 0 0 0 0 127 0" result="hardAlpha"/>
<feOffset dy="4"/>
<feGaussianBlur stdDeviation="2"/>
<feComposite in2="hardAlpha" operator="out"/>
<feColorMatrix type="matrix" values="0 0 0 0 0 0 0 0 0 0 0 0 0 0 0 0 0 0 0.25 0"/>
<feBlend mode="normal" in2="BackgroundImageFix" result="effect1_dropShadow_10_35"/>
<feBlend mode="normal" in="SourceGraphic" in2="effect1_dropShadow_10_35" result="shape"/>
</filter>
<filter id="filter2_d_10_35" x="66.8123" y="70.1406" width="132.047" height="45.8" filterUnits="userSpaceOnUse" color-interpolation-filters="sRGB">
<feFlood flood-opacity="0" result="BackgroundImageFix"/>
<feColorMatrix in="SourceAlpha" type="matrix" values="0 0 0 0 0 0 0 0 0 0 0 0 0 0 0 0 0 0 127 0" result="hardAlpha"/>
<feOffset dy="4"/>
<feGaussianBlur stdDeviation="2"/>
<feComposite in2="hardAlpha" operator="out"/>
<feColorMatrix type="matrix" values="0 0 0 0 0 0 0 0 0 0 0 0 0 0 0 0 0 0 0.25 0"/>
<feBlend mode="normal" in2="BackgroundImageFix" result="effect1_dropShadow_10_35"/>
<feBlend mode="normal" in="SourceGraphic" in2="effect1_dropShadow_10_35" result="shape"/>
</filter>
<filter id="filter3_d_10_35" x="85.4492" y="0.481079" width="25.1266" height="38.4973" filterUnits="userSpaceOnUse" color-interpolation-filters="sRGB">
<feFlood flood-opacity="0" result="BackgroundImageFix"/>
<feColorMatrix in="SourceAlpha" type="matrix" values="0 0 0 0 0 0 0 0 0 0 0 0 0 0 0 0 0 0 127 0" result="hardAlpha"/>
<feOffset dy="4"/>
<feGaussianBlur stdDeviation="2"/>
<feComposite in2="hardAlpha" operator="out"/>
<feColorMatrix type="matrix" values="0 0 0 0 0 0 0 0 0 0 0 0 0 0 0 0 0 0 0.25 0"/>
<feBlend mode="normal" in2="BackgroundImageFix" result="effect1_dropShadow_10_35"/>
<feBlend mode="normal" in="SourceGraphic" in2="effect1_dropShadow_10_35" result="shape"/>
</filter>
<filter id="filter4_d_10_35" x="53.0781" y="10.6216" width="74.6875" height="53.4054" filterUnits="userSpaceOnUse" color-interpolation-filters="sRGB">
<feFlood flood-opacity="0" result="BackgroundImageFix"/>
<feColorMatrix in="SourceAlpha" type="matrix" values="0 0 0 0 0 0 0 0 0 0 0 0 0 0 0 0 0 0 127 0" result="hardAlpha"/>
<feOffset dy="4"/>
<feGaussianBlur stdDeviation="2"/>
<feComposite in2="hardAlpha" operator="out"/>
<feColorMatrix type="matrix" values="0 0 0 0 0 0 0 0 0 0 0 0 0 0 0 0 0 0 0.25 0"/>
<feBlend mode="normal" in2="BackgroundImageFix" result="effect1_dropShadow_10_35"/>
<feBlend mode="normal" in="SourceGraphic" in2="effect1_dropShadow_10_35" result="shape"/>
</filter>
<clipPath id="clip0_10_35">
<rect width="191" height="108" fill="white" transform="translate(4)"/>
</clipPath>
</defs>
</svg>
