<svg width="28" height="24" viewBox="0 0 28 24" fill="none" xmlns="http://www.w3.org/2000/svg">
<g filter="url(#filter0_d_658_111)">
<path d="M14 16H4V14H9.75C9 11.19 6.81 9 4 8.26C4.64 8.1 5.31 8 6 8C10.42 8 14 11.58 14 16ZM24 8.26C23.36 8.1 22.69 8 22 8C19.07 8 16.5 9.58 15.12 11.93C15.41 12.59 15.65 13.28 15.79 14C15.92 14.65 16 15.32 16 16H24V14H18.24C19 11.19 21.19 9 24 8.26ZM17.64 7C18.42 4.93 19.87 3.18 21.73 2C17.44 2.16 14 5.67 14 10C14.95 8.75 16.2 7.72 17.64 7ZM13.42 4.85C12.58 2.66 10.88 0.89 8.7 0C10.14 1.86 11 4.18 11 6.71C11 6.92 10.97 7.12 10.96 7.32C11.39 7.56 11.79 7.84 12.18 8.14C12.39 6.96 12.83 5.85 13.42 4.85Z" fill="#47474D"/>
</g>
<defs>
<filter id="filter0_d_658_111" x="0" y="0" width="28" height="24" filterUnits="userSpaceOnUse" color-interpolation-filters="sRGB">
<feFlood flood-opacity="0" result="BackgroundImageFix"/>
<feColorMatrix in="SourceAlpha" type="matrix" values="0 0 0 0 0 0 0 0 0 0 0 0 0 0 0 0 0 0 127 0" result="hardAlpha"/>
<feOffset dy="4"/>
<feGaussianBlur stdDeviation="2"/>
<feComposite in2="hardAlpha" operator="out"/>
<feColorMatrix type="matrix" values="0 0 0 0 0 0 0 0 0 0 0 0 0 0 0 0 0 0 0.25 0"/>
<feBlend mode="normal" in2="BackgroundImageFix" result="effect1_dropShadow_658_111"/>
<feBlend mode="normal" in="SourceGraphic" in2="effect1_dropShadow_658_111" result="shape"/>
</filter>
</defs>
</svg>
