<svg width="30" height="23" viewBox="0 0 30 23" fill="none" xmlns="http://www.w3.org/2000/svg">
<g filter="url(#filter0_d_658_127)">
<path d="M22 2H14V9H6V0H4V15H6V12H24V15H26V6C26 4.93913 25.5786 3.92172 24.8284 3.17157C24.0783 2.42143 23.0609 2 22 2ZM10 8C10.7956 8 11.5587 7.68393 12.1213 7.12132C12.6839 6.55871 13 5.79565 13 5C13 4.20435 12.6839 3.44129 12.1213 2.87868C11.5587 2.31607 10.7956 2 10 2C9.20435 2 8.44129 2.31607 7.87868 2.87868C7.31607 3.44129 7 4.20435 7 5C7 5.79565 7.31607 6.55871 7.87868 7.12132C8.44129 7.68393 9.20435 8 10 8V8Z" fill="#47474D"/>
</g>
<defs>
<filter id="filter0_d_658_127" x="0" y="0" width="30" height="23" filterUnits="userSpaceOnUse" color-interpolation-filters="sRGB">
<feFlood flood-opacity="0" result="BackgroundImageFix"/>
<feColorMatrix in="SourceAlpha" type="matrix" values="0 0 0 0 0 0 0 0 0 0 0 0 0 0 0 0 0 0 127 0" result="hardAlpha"/>
<feOffset dy="4"/>
<feGaussianBlur stdDeviation="2"/>
<feComposite in2="hardAlpha" operator="out"/>
<feColorMatrix type="matrix" values="0 0 0 0 0 0 0 0 0 0 0 0 0 0 0 0 0 0 0.25 0"/>
<feBlend mode="normal" in2="BackgroundImageFix" result="effect1_dropShadow_658_127"/>
<feBlend mode="normal" in="SourceGraphic" in2="effect1_dropShadow_658_127" result="shape"/>
</filter>
</defs>
</svg>
