<svg width="25" height="21" viewBox="0 0 25 21" fill="none" xmlns="http://www.w3.org/2000/svg">
<g filter="url(#filter0_d_662_133)">
<path d="M11.333 5.05054C11.333 6.71054 9.99301 8.05054 8.33301 8.05054C6.67301 8.05054 5.33301 6.71054 5.33301 5.05054C5.33301 3.39054 6.67301 2.05054 8.33301 2.05054C9.99301 2.05054 11.333 3.39054 11.333 5.05054ZM14.333 16.0505H2.33301V14.0505C2.33301 11.8405 5.02301 10.0505 8.33301 10.0505C11.643 10.0505 14.333 11.8405 14.333 14.0505V16.0505ZM22.333 8.05054V10.0505H13.333V8.05054H22.333ZM22.333 4.05054V6.05054H13.333V4.05054H22.333ZM22.333 0.0505371V2.05054H13.333V0.0505371H22.333Z" fill="#47474D"/>
</g>
<defs>
<filter id="filter0_d_662_133" x="-1.66699" y="0.0505371" width="28" height="24" filterUnits="userSpaceOnUse" color-interpolation-filters="sRGB">
<feFlood flood-opacity="0" result="BackgroundImageFix"/>
<feColorMatrix in="SourceAlpha" type="matrix" values="0 0 0 0 0 0 0 0 0 0 0 0 0 0 0 0 0 0 127 0" result="hardAlpha"/>
<feOffset dy="4"/>
<feGaussianBlur stdDeviation="2"/>
<feComposite in2="hardAlpha" operator="out"/>
<feColorMatrix type="matrix" values="0 0 0 0 0 0 0 0 0 0 0 0 0 0 0 0 0 0 0.25 0"/>
<feBlend mode="normal" in2="BackgroundImageFix" result="effect1_dropShadow_662_133"/>
<feBlend mode="normal" in="SourceGraphic" in2="effect1_dropShadow_662_133" result="shape"/>
</filter>
</defs>
</svg>
